<svg width="8" height="13" viewBox="0 0 8 13" fill="none" xmlns="http://www.w3.org/2000/svg">
<path d="M7.66989 6.81775L2.8981 11.6754C2.45889 12.1232 1.74704 12.1232 1.30692 11.6754C0.867706 11.2292 0.867706 10.5039 1.30692 10.057L5.28421 6.00818L1.30692 1.95996C0.867706 1.51306 0.867706 0.788696 1.30692 0.34082C1.74704 -0.106201 2.45889 -0.106201 2.8981 0.34082L7.66989 5.19849C7.88998 5.42249 7.99997 5.71545 7.99997 6.00842C7.99997 6.30139 7.88998 6.59424 7.66989 6.81775Z" fill="#656565"/>
<path d="M7.66989 6.81775L2.8981 11.6754C2.45889 12.1232 1.74704 12.1232 1.30692 11.6754C0.867706 11.2292 0.867706 10.5039 1.30692 10.057L5.28421 6.00818L1.30692 1.95996C0.867706 1.51306 0.867706 0.788696 1.30692 0.34082C1.74704 -0.106201 2.45889 -0.106201 2.8981 0.34082L7.66989 5.19849C7.88998 5.42249 7.99997 5.71545 7.99997 6.00842C7.99997 6.30139 7.88998 6.59424 7.66989 6.81775Z" fill="black" fill-opacity="0.2"/>
<path d="M7.66989 6.81775L2.8981 11.6754C2.45889 12.1232 1.74704 12.1232 1.30692 11.6754C0.867706 11.2292 0.867706 10.5039 1.30692 10.057L5.28421 6.00818L1.30692 1.95996C0.867706 1.51306 0.867706 0.788696 1.30692 0.34082C1.74704 -0.106201 2.45889 -0.106201 2.8981 0.34082L7.66989 5.19849C7.88998 5.42249 7.99997 5.71545 7.99997 6.00842C7.99997 6.30139 7.88998 6.59424 7.66989 6.81775Z" fill="black" fill-opacity="0.2"/>
<path d="M7.66989 6.81775L2.8981 11.6754C2.45889 12.1232 1.74704 12.1232 1.30692 11.6754C0.867706 11.2292 0.867706 10.5039 1.30692 10.057L5.28421 6.00818L1.30692 1.95996C0.867706 1.51306 0.867706 0.788696 1.30692 0.34082C1.74704 -0.106201 2.45889 -0.106201 2.8981 0.34082L7.66989 5.19849C7.88998 5.42249 7.99997 5.71545 7.99997 6.00842C7.99997 6.30139 7.88998 6.59424 7.66989 6.81775Z" fill="black" fill-opacity="0.2"/>
<path d="M7.66989 6.81775L2.8981 11.6754C2.45889 12.1232 1.74704 12.1232 1.30692 11.6754C0.867706 11.2292 0.867706 10.5039 1.30692 10.057L5.28421 6.00818L1.30692 1.95996C0.867706 1.51306 0.867706 0.788696 1.30692 0.34082C1.74704 -0.106201 2.45889 -0.106201 2.8981 0.34082L7.66989 5.19849C7.88998 5.42249 7.99997 5.71545 7.99997 6.00842C7.99997 6.30139 7.88998 6.59424 7.66989 6.81775Z" fill="black" fill-opacity="0.2"/>
</svg>
