<svg width="20" height="20" viewBox="0 0 20 20" fill="none" xmlns="http://www.w3.org/2000/svg">
<g clip-path="url(#clip0_8750_8574)">
<path d="M17.7069 4.34659C17.7351 4.37214 17.7606 4.40046 17.786 4.43175L17.8257 4.48859L17.8624 4.55394C17.8821 4.59077 17.8991 4.63335 17.9161 4.67593L17.9387 4.74682C17.9727 4.86604 17.9896 4.99377 17.9896 5.11873C17.9896 5.24369 17.9727 5.37143 17.9387 5.49064L17.9161 5.56153C17.8991 5.60411 17.8821 5.64669 17.8624 5.68352L17.8257 5.74888L17.786 5.80571C17.7606 5.837 17.7351 5.86532 17.7069 5.89087L13.0855 10.1096C12.8168 10.3566 12.4718 10.209 12.3163 9.78307C12.1636 9.35432 12.2542 8.81211 12.5256 8.56517L15.3257 6.01014H2.62367C2.31255 6.01014 2.06079 5.60991 2.06079 5.11858C2.06079 4.62745 2.31253 4.22702 2.62367 4.22702H15.3257L12.5256 1.67199C12.2542 1.42504 12.1636 0.882837 12.3163 0.454092C12.4718 0.0283173 12.8168 -0.119394 13.0855 0.127532L17.7069 4.34629V4.34659Z" fill="#634C9F"/>
<path d="M2.34326 15.6797C2.31504 15.6541 2.28959 15.6258 2.26415 15.5945L2.22449 15.5377L2.1878 15.4723C2.16807 15.4355 2.1511 15.3929 2.13413 15.3503L2.11145 15.2795C2.07751 15.1602 2.06055 15.0325 2.06055 14.9075C2.06055 14.7826 2.07751 14.6549 2.11145 14.5356L2.13413 14.4647C2.1511 14.4222 2.16807 14.3796 2.1878 14.3428L2.22449 14.2774L2.26415 14.2206C2.2896 14.1893 2.31504 14.161 2.34326 14.1354L6.96467 9.91665C7.23337 9.6697 7.57841 9.81724 7.73386 10.2432C7.88656 10.669 7.79325 11.2142 7.52454 11.4611L4.72449 14.0161H17.4265C17.7376 14.0161 17.9894 14.4164 17.9894 14.9077C17.9894 15.3988 17.7377 15.7993 17.4265 15.7993H4.72449L7.52454 18.3543C7.79325 18.6012 7.88656 19.1434 7.73386 19.5722C7.5784 19.998 7.23335 20.1429 6.96467 19.8987L2.34326 15.68V15.6797Z" fill="#634C9F"/>
</g>
<defs>
<clipPath id="clip0_8750_8574">
<rect width="20" height="20" fill="white"/>
</clipPath>
</defs>
</svg>
