<svg width="39" height="36" viewBox="0 0 39 36" fill="none" xmlns="http://www.w3.org/2000/svg">
<path d="M33.1 0L5.495 0L0 9.549L0 12.86C0.00100815 13.6417 0.217057 14.408 0.624493 15.075C1.03193 15.7421 1.61504 16.2842 2.31 16.642L2.31 36H23.057V14.858C23.4198 15.5404 23.9615 16.1112 24.6239 16.5092C25.2864 16.9073 26.0447 17.1176 26.8175 17.1176C27.5903 17.1176 28.3486 16.9073 29.0111 16.5092C29.6735 16.1112 30.2152 15.5404 30.578 14.858C30.9404 15.5405 31.4817 16.1114 32.144 16.5095C32.8062 16.9077 33.5643 17.118 34.337 17.118L34.337 36H36.285L36.285 16.642C36.9809 16.2849 37.565 15.7431 37.9734 15.076C38.3817 14.4088 38.5985 13.6422 38.6 12.86V9.549L33.1 0ZM8.8 10L11.521 1.72L15.846 1.72L14.946 9.952V12.319C14.9534 12.7269 14.8794 13.1322 14.7284 13.5111C14.5774 13.8901 14.3524 14.2352 14.0665 14.5263C13.7807 14.8173 13.4397 15.0485 13.0635 15.2063C12.6873 15.3641 12.2835 15.4454 11.8755 15.4454C11.4675 15.4454 11.0637 15.3641 10.6875 15.2063C10.3113 15.0485 9.97032 14.8173 9.68447 14.5263C9.39862 14.2352 9.17362 13.8901 9.02262 13.5111C8.87162 13.1322 8.79764 12.7269 8.805 12.319V10H8.8ZM21.224 23.8L4.259 23.8L4.259 17.118C5.03168 17.1179 5.78976 16.9075 6.45196 16.5094C7.11417 16.1112 7.65553 15.5404 8.018 14.858C8.38082 15.5404 8.92248 16.1112 9.58493 16.5092C10.2474 16.9073 11.0057 17.1176 11.7785 17.1176C12.5513 17.1176 13.3096 16.9073 13.9721 16.5092C14.6345 16.1112 15.1762 15.5404 15.539 14.858C15.9017 15.5402 16.4431 16.1108 17.1053 16.5089C17.7674 16.907 18.5254 17.1176 19.298 17.118C19.9676 17.117 20.6273 16.9558 21.222 16.648V23.807L21.224 23.8ZM29.795 12.316C29.8024 12.7239 29.7284 13.1292 29.5774 13.5081C29.4264 13.8871 29.2014 14.2322 28.9155 14.5233C28.6297 14.8143 28.2887 15.0455 27.9125 15.2033C27.5363 15.3611 27.1325 15.4424 26.7245 15.4424C26.3165 15.4424 25.9127 15.3611 25.5365 15.2033C25.1603 15.0455 24.8193 14.8143 24.5335 14.5233C24.2476 14.2322 24.0226 13.8871 23.8716 13.5081C23.7206 13.1292 23.6466 12.7239 23.654 12.316V9.956L22.754 1.724L27.079 1.724L29.8 10V12.319L29.795 12.316Z" fill="#634C9F"/>
</svg>
