<svg width="62" height="34" viewBox="0 0 62 34" fill="none" xmlns="http://www.w3.org/2000/svg">
<path d="M22.409 25.9463C22.0563 25.9463 21.7116 26.0509 21.4184 26.2468C21.1252 26.4427 20.8967 26.7212 20.7617 27.047C20.6268 27.3728 20.5914 27.7313 20.6602 28.0771C20.729 28.423 20.8989 28.7407 21.1482 28.9901C21.3976 29.2394 21.7153 29.4092 22.0611 29.478C22.407 29.5468 22.7655 29.5115 23.0913 29.3766C23.4171 29.2416 23.6956 29.0131 23.8915 28.7199C24.0874 28.4267 24.192 28.0819 24.192 27.7293C24.192 27.4951 24.1459 27.2633 24.0563 27.047C23.9667 26.8306 23.8353 26.6341 23.6698 26.4685C23.5042 26.303 23.3076 26.1716 23.0913 26.082C22.875 25.9924 22.6431 25.9463 22.409 25.9463Z" fill="#634C9F"/>
<path d="M61.021 16.908L57.082 9.16102C56.6162 8.25685 55.9112 7.49782 55.0439 6.96656C54.1766 6.4353 53.1801 6.15217 52.163 6.14802L45.707 6.14802V1.04801C45.7134 0.909082 45.6908 0.77034 45.6405 0.640655C45.5903 0.510969 45.5135 0.393191 45.4152 0.294847C45.3168 0.196502 45.199 0.119752 45.0694 0.0695028C44.9397 0.0192533 44.8009 -0.00339166 44.662 0.00301458L12.449 0.00301458C12.3101 -0.00339166 12.1713 0.0192533 12.0416 0.0695028C11.912 0.119752 11.7942 0.196502 11.6958 0.294847C11.5975 0.393191 11.5207 0.510969 11.4705 0.640655C11.4202 0.77034 11.3976 0.909082 11.404 1.04801V4.25301L23.904 4.25301C24.3315 4.25301 24.7415 4.42285 25.0439 4.72516C25.3462 5.02747 25.516 5.43749 25.516 5.86501C25.516 6.29254 25.3462 6.70256 25.0439 7.00487C24.7415 7.30718 24.3315 7.47702 23.904 7.47702L6.53 7.47702C6.1026 7.47702 5.6927 7.6468 5.39049 7.94901C5.08827 8.25123 4.91849 8.66112 4.91849 9.08852C4.91849 9.51591 5.08827 9.9258 5.39049 10.228C5.6927 10.5302 6.1026 10.7 6.53 10.7L8.95999 10.7C9.00099 10.7 9.04 10.688 9.082 10.688H18.37C18.7975 10.688 19.2075 10.8579 19.5099 11.1602C19.8122 11.4625 19.982 11.8725 19.982 12.3C19.982 12.7275 19.8122 13.1376 19.5099 13.4399C19.2075 13.7422 18.7975 13.912 18.37 13.912H11.405V13.924L1.612 13.924C1.18447 13.924 0.774446 14.0939 0.472137 14.3962C0.169829 14.6985 0 15.1085 0 15.536C0 15.9635 0.169829 16.3736 0.472137 16.6759C0.774446 16.9782 1.18447 17.148 1.612 17.148H12.837C13.2644 17.148 13.6743 17.3178 13.9765 17.62C14.2787 17.9222 14.4485 18.3321 14.4485 18.7595C14.4485 19.1869 14.2787 19.5968 13.9765 19.899C13.6743 20.2012 13.2644 20.371 12.837 20.371H11.405L11.405 28.771L16.262 28.771C16.4984 30.2318 17.247 31.5608 18.3739 32.5199C19.5007 33.4791 20.9322 34.0058 22.412 34.0058C23.8918 34.0058 25.3233 33.4791 26.4501 32.5199C27.577 31.5608 28.3256 30.2318 28.562 28.771H42.082C42.3175 30.2372 43.0694 31.5708 44.202 32.5312C45.3345 33.4916 46.7732 34.0154 48.2581 34.008C49.7431 34.0007 51.1764 33.4626 52.2994 32.4911C53.4224 31.5195 54.1611 30.1784 54.382 28.71H61.207V17.4C61.2186 17.309 61.2077 17.2166 61.1752 17.1309C61.1428 17.0451 61.0898 16.9686 61.021 16.908ZM22.41 31.908C21.5831 31.908 20.7747 31.6628 20.0872 31.2034C19.3996 30.744 18.8637 30.091 18.5473 29.327C18.2308 28.563 18.148 27.7224 18.3093 26.9113C18.4707 26.1003 18.8689 25.3553 19.4536 24.7706C20.0383 24.1859 20.7833 23.7877 21.5943 23.6264C22.4053 23.465 23.246 23.5478 24.01 23.8643C24.774 24.1807 25.427 24.7166 25.8864 25.4042C26.3458 26.0917 26.591 26.9001 26.591 27.727C26.5905 28.8361 26.1497 29.8996 25.3656 30.6839C24.5815 31.4682 23.5181 31.9092 22.409 31.91L22.41 31.908ZM45.71 8.23701L52.227 8.23701C52.8597 8.23066 53.4818 8.39957 54.0243 8.72505C54.5669 9.05052 55.0088 9.51984 55.301 10.081L58.501 16.352H45.711L45.71 8.23701ZM48.169 31.846C47.6186 31.8507 47.0729 31.7457 46.5635 31.5373C46.0541 31.3288 45.5914 31.021 45.2022 30.6318C44.813 30.2427 44.5052 29.7799 44.2968 29.2705C44.0883 28.7611 43.9833 28.2154 43.988 27.665C44.0247 26.6422 44.4161 25.6639 45.095 24.898C45.2282 24.8086 45.3518 24.7057 45.464 24.591C46.2251 23.9439 47.1726 23.5562 48.169 23.484C49.2779 23.484 50.3413 23.9245 51.1254 24.7086C51.9095 25.4927 52.35 26.5561 52.35 27.665C52.35 28.7739 51.9095 29.8373 51.1254 30.6214C50.3413 31.4055 49.2779 31.846 48.169 31.846ZM59.113 26.558H54.382C54.1377 25.1019 53.3869 23.779 52.2619 22.8228C51.137 21.8665 49.7104 21.3385 48.234 21.332C47.3635 21.3317 46.5034 21.5204 45.713 21.885V18.445H59.113V26.558Z" fill="#634C9F"/>
<path d="M48.2322 25.9463C47.8796 25.9463 47.5349 26.0509 47.2416 26.2468C46.9484 26.4427 46.7199 26.7212 46.5849 27.047C46.45 27.3728 46.4147 27.7313 46.4835 28.0771C46.5523 28.423 46.7221 28.7407 46.9715 28.9901C47.2208 29.2394 47.5385 29.4092 47.8844 29.478C48.2302 29.5468 48.5887 29.5115 48.9145 29.3766C49.2403 29.2416 49.5188 29.0131 49.7147 28.7199C49.9106 28.4267 50.0152 28.0819 50.0152 27.7293C50.0152 27.2564 49.8274 26.8029 49.493 26.4685C49.1586 26.1341 48.7051 25.9463 48.2322 25.9463Z" fill="#634C9F"/>
</svg>
