<svg width="21" height="20" viewBox="0 0 21 20" fill="none" xmlns="http://www.w3.org/2000/svg">
<path d="M18.4977 16.5627C17.3078 14.5056 15.4742 13.0306 13.3344 12.3314C14.3929 11.7013 15.2152 10.7412 15.6752 9.59845C16.1352 8.45573 16.2073 7.19361 15.8805 6.00592C15.5538 4.81823 14.8462 3.77064 13.8664 3.02402C12.8866 2.2774 11.6889 1.87305 10.4571 1.87305C9.22524 1.87305 8.02747 2.2774 7.0477 3.02402C6.06794 3.77064 5.36034 4.81823 5.03358 6.00592C4.70681 7.19361 4.77896 8.45573 5.23892 9.59845C5.69889 10.7412 6.52125 11.7013 7.57972 12.3314C5.43987 13.0299 3.60628 14.5049 2.41643 16.5627C2.3728 16.6338 2.34386 16.713 2.33132 16.7955C2.31877 16.878 2.32288 16.9622 2.34341 17.0431C2.36393 17.124 2.40045 17.2 2.4508 17.2665C2.50116 17.3331 2.56434 17.3889 2.63661 17.4306C2.70888 17.4724 2.78878 17.4992 2.8716 17.5096C2.95441 17.5199 3.03846 17.5136 3.1188 17.491C3.19913 17.4683 3.27411 17.4298 3.33932 17.3777C3.40452 17.3256 3.45864 17.261 3.49847 17.1877C4.97034 14.6439 7.5719 13.1252 10.4571 13.1252C13.3422 13.1252 15.9438 14.6439 17.4157 17.1877C17.4555 17.261 17.5096 17.3256 17.5748 17.3777C17.64 17.4298 17.715 17.4683 17.7953 17.491C17.8757 17.5136 17.9597 17.5199 18.0425 17.5096C18.1253 17.4992 18.2052 17.4724 18.2775 17.4306C18.3498 17.3889 18.413 17.3331 18.4633 17.2665C18.5137 17.2 18.5502 17.124 18.5707 17.0431C18.5912 16.9622 18.5953 16.878 18.5828 16.7955C18.5703 16.713 18.5413 16.6338 18.4977 16.5627ZM6.08206 7.50017C6.08206 6.63488 6.33865 5.78902 6.81938 5.06955C7.30011 4.35009 7.98339 3.78933 8.78282 3.4582C9.58225 3.12707 10.4619 3.04043 11.3106 3.20924C12.1592 3.37805 12.9388 3.79473 13.5507 4.40658C14.1625 5.01843 14.5792 5.79799 14.748 6.64665C14.9168 7.49532 14.8302 8.37499 14.499 9.17441C14.1679 9.97384 13.6071 10.6571 12.8877 11.1379C12.1682 11.6186 11.3224 11.8752 10.4571 11.8752C9.29712 11.8739 8.18504 11.4126 7.36484 10.5924C6.54464 9.77219 6.0833 8.66011 6.08206 7.50017Z" fill="#171717"/>
</svg>
